<?xml version="1.0" encoding="iso-8859-1"?>
<!-- Uploaded to: SVG Repo, www.svgrepo.com, Generator: SVG Repo Mixer Tools -->
<svg fill="#000000" height="800px" width="800px" version="1.1" id="Capa_1" xmlns="http://www.w3.org/2000/svg" xmlns:xlink="http://www.w3.org/1999/xlink" 
	 viewBox="0 0 463 463" xml:space="preserve">
<g>
	<path d="M423.5,0h-15.997c-4.143,0-7.5,3.358-7.5,7.5s3.357,7.5,7.5,7.5H423.5c13.51,0,24.5,10.991,24.5,24.5v384
		c0,13.509-10.99,24.5-24.5,24.5h-320c-4.143,0-7.5,3.358-7.5,7.5s3.357,7.5,7.5,7.5h320c21.78,0,39.5-17.72,39.5-39.5v-384
		C463,17.72,445.281,0,423.5,0z"/>
	<path d="M55.497,448H39.5C25.99,448,15,437.01,15,423.5V367h33v40.5c0,4.142,3.357,7.5,7.5,7.5h352c4.143,0,7.5-3.358,7.5-7.5v-152
		c0-4.142-3.357-7.5-7.5-7.5s-7.5,3.358-7.5,7.5V400h-81v-33h40.5c4.143,0,7.5-3.358,7.5-7.5v-256c0-4.142-3.357-7.5-7.5-7.5
		h-48.001c-4.143,0-7.5,3.358-7.5,7.5s3.357,7.5,7.5,7.5H352v241H111v-33h152.5c4.143,0,7.5-3.358,7.5-7.5s-3.357-7.5-7.5-7.5H239
		v-33h24.5c4.143,0,7.5-3.358,7.5-7.5s-3.357-7.5-7.5-7.5H207v-49h56.5c4.143,0,7.5-3.358,7.5-7.5s-3.357-7.5-7.5-7.5H239v-33h65
		v152.5c0,4.142,3.357,7.5,7.5,7.5s7.5-3.358,7.5-7.5v-160c0-4.142-3.357-7.5-7.5-7.5h-160c-4.143,0-7.5,3.358-7.5,7.5v47.999
		c0,4.142,3.357,7.5,7.5,7.5s7.5-3.358,7.5-7.5V159h65v33h-24.5c-4.143,0-7.5,3.358-7.5,7.5v64c0,4.142,3.357,7.5,7.5,7.5H224v33
		h-65v-56.5c0-4.142-3.357-7.5-7.5-7.5s-7.5,3.358-7.5,7.5V304h-33V111h152.5c4.143,0,7.5-3.358,7.5-7.5s-3.357-7.5-7.5-7.5H239V63
		h161v144.497c0,4.142,3.357,7.5,7.5,7.5s7.5-3.358,7.5-7.5V55.5c0-4.142-3.357-7.5-7.5-7.5h-352c-4.143,0-7.5,3.358-7.5,7.5v48
		c0,4.142,3.357,7.5,7.5,7.5s7.5-3.358,7.5-7.5V63h161v33H103.5c-4.143,0-7.5,3.358-7.5,7.5v256c0,4.142,3.357,7.5,7.5,7.5H304v33
		H63V151.501c0-4.142-3.357-7.5-7.5-7.5s-7.5,3.358-7.5,7.5V352H15V39.5C15,25.991,25.99,15,39.5,15h320c4.143,0,7.5-3.358,7.5-7.5
		S363.643,0,359.5,0h-320C17.72,0,0,17.72,0,39.5v384c0,21.78,17.72,39.5,39.5,39.5h15.997c4.143,0,7.5-3.358,7.5-7.5
		S59.64,448,55.497,448z"/>
</g>
</svg>